<svg id="visual" viewBox="0 0 2160 3840" width="2160" height="3840" xmlns="http://www.w3.org/2000/svg" xmlns:xlink="http://www.w3.org/1999/xlink" version="1.1"><rect x="0" y="0" width="2160" height="3840" fill="#00172f"></rect><defs><linearGradient id="grad1_0" x1="0%" y1="0%" x2="100%" y2="100%"><stop offset="30%" stop-color="#fcaf3c" stop-opacity="1"></stop><stop offset="70%" stop-color="#fcaf3c" stop-opacity="1"></stop></linearGradient></defs><defs><linearGradient id="grad1_1" x1="0%" y1="0%" x2="100%" y2="100%"><stop offset="30%" stop-color="#fcaf3c" stop-opacity="1"></stop><stop offset="70%" stop-color="#a2426c" stop-opacity="1"></stop></linearGradient></defs><defs><linearGradient id="grad1_2" x1="0%" y1="0%" x2="100%" y2="100%"><stop offset="30%" stop-color="#00172f" stop-opacity="1"></stop><stop offset="70%" stop-color="#a2426c" stop-opacity="1"></stop></linearGradient></defs><defs><linearGradient id="grad2_0" x1="0%" y1="0%" x2="100%" y2="100%"><stop offset="30%" stop-color="#fcaf3c" stop-opacity="1"></stop><stop offset="70%" stop-color="#fcaf3c" stop-opacity="1"></stop></linearGradient></defs><defs><linearGradient id="grad2_1" x1="0%" y1="0%" x2="100%" y2="100%"><stop offset="30%" stop-color="#a2426c" stop-opacity="1"></stop><stop offset="70%" stop-color="#fcaf3c" stop-opacity="1"></stop></linearGradient></defs><defs><linearGradient id="grad2_2" x1="0%" y1="0%" x2="100%" y2="100%"><stop offset="30%" stop-color="#a2426c" stop-opacity="1"></stop><stop offset="70%" stop-color="#00172f" stop-opacity="1"></stop></linearGradient></defs><g transform="translate(2160, 0)"><path d="M0 1296C-229.8 1263.9 -459.7 1231.9 -648 1122.4C-836.3 1012.9 -983.2 826 -1084.3 626C-1185.3 426 -1240.7 213 -1296 0L0 0Z" fill="#4b2f5d"></path><path d="M0 864C-153.2 842.6 -306.4 821.2 -432 748.2C-557.6 675.3 -655.5 550.6 -722.8 417.3C-790.2 284 -827.1 142 -864 0L0 0Z" fill="#e56a5a"></path><path d="M0 432C-76.6 421.3 -153.2 410.6 -216 374.1C-278.8 337.6 -327.7 275.3 -361.4 208.7C-395.1 142 -413.6 71 -432 0L0 0Z" fill="#fcaf3c"></path></g><g transform="translate(0, 3840)"><path d="M0 -1296C211.7 -1238.4 423.4 -1180.7 623.5 -1079.9C823.6 -979.1 1012.2 -835.2 1122.4 -648C1232.5 -460.8 1264.3 -230.4 1296 0L0 0Z" fill="#4b2f5d"></path><path d="M0 -864C141.1 -825.6 282.2 -787.2 415.7 -720C549.1 -652.8 674.8 -556.8 748.2 -432C821.7 -307.2 842.8 -153.6 864 0L0 0Z" fill="#e56a5a"></path><path d="M0 -432C70.6 -412.8 141.1 -393.6 207.8 -360C274.5 -326.4 337.4 -278.4 374.1 -216C410.8 -153.6 421.4 -76.8 432 0L0 0Z" fill="#fcaf3c"></path></g></svg>