<svg id="visual" viewBox="0 0 3840 2160" width="3840" height="2160" xmlns="http://www.w3.org/2000/svg" xmlns:xlink="http://www.w3.org/1999/xlink" version="1.1"><rect x="0" y="0" width="3840" height="2160" fill="#00172f"></rect><defs><linearGradient id="grad1_0" x1="43.8%" y1="0%" x2="100%" y2="100%"><stop offset="14.444444444444446%" stop-color="#fcaf3c" stop-opacity="1"></stop><stop offset="85.55555555555554%" stop-color="#fcaf3c" stop-opacity="1"></stop></linearGradient></defs><defs><linearGradient id="grad1_1" x1="43.8%" y1="0%" x2="100%" y2="100%"><stop offset="14.444444444444446%" stop-color="#fcaf3c" stop-opacity="1"></stop><stop offset="85.55555555555554%" stop-color="#a2426c" stop-opacity="1"></stop></linearGradient></defs><defs><linearGradient id="grad1_2" x1="43.8%" y1="0%" x2="100%" y2="100%"><stop offset="14.444444444444446%" stop-color="#00172f" stop-opacity="1"></stop><stop offset="85.55555555555554%" stop-color="#a2426c" stop-opacity="1"></stop></linearGradient></defs><defs><linearGradient id="grad2_0" x1="0%" y1="0%" x2="56.3%" y2="100%"><stop offset="14.444444444444446%" stop-color="#fcaf3c" stop-opacity="1"></stop><stop offset="85.55555555555554%" stop-color="#fcaf3c" stop-opacity="1"></stop></linearGradient></defs><defs><linearGradient id="grad2_1" x1="0%" y1="0%" x2="56.3%" y2="100%"><stop offset="14.444444444444446%" stop-color="#a2426c" stop-opacity="1"></stop><stop offset="85.55555555555554%" stop-color="#fcaf3c" stop-opacity="1"></stop></linearGradient></defs><defs><linearGradient id="grad2_2" x1="0%" y1="0%" x2="56.3%" y2="100%"><stop offset="14.444444444444446%" stop-color="#a2426c" stop-opacity="1"></stop><stop offset="85.55555555555554%" stop-color="#00172f" stop-opacity="1"></stop></linearGradient></defs><g transform="translate(3840, 0)"><path d="M0 1296C-227.3 1262.5 -454.6 1228.9 -648 1122.4C-841.4 1015.8 -1001 836.2 -1103.3 637C-1205.7 437.8 -1250.8 218.9 -1296 0L0 0Z" fill="#4b2f5d"></path><path d="M0 864C-151.5 841.6 -303.1 819.3 -432 748.2C-560.9 677.2 -667.3 557.5 -735.5 424.7C-803.8 291.8 -833.9 145.9 -864 0L0 0Z" fill="#e56a5a"></path><path d="M0 432C-75.8 420.8 -151.5 409.6 -216 374.1C-280.5 338.6 -333.7 278.7 -367.8 212.3C-401.9 145.9 -416.9 73 -432 0L0 0Z" fill="#fcaf3c"></path></g><g transform="translate(0, 2160)"><path d="M0 -1296C219.2 -1251.3 438.3 -1206.6 637.5 -1104.2C836.7 -1001.8 1015.9 -841.6 1122.4 -648C1228.8 -454.4 1262.4 -227.2 1296 0L0 0Z" fill="#4b2f5d"></path><path d="M0 -864C146.1 -834.2 292.2 -804.4 425 -736.1C557.8 -667.8 677.3 -561.1 748.2 -432C819.2 -302.9 841.6 -151.5 864 0L0 0Z" fill="#e56a5a"></path><path d="M0 -432C73.1 -417.1 146.1 -402.2 212.5 -368.1C278.9 -333.9 338.6 -280.5 374.1 -216C409.6 -151.5 420.8 -75.7 432 0L0 0Z" fill="#fcaf3c"></path></g></svg>